<svg xmlns="http://www.w3.org/2000/svg" viewBox="0 0 1024 1024" role="img" aria-labelledby="title desc">
  <title id="title">Zimbabwe Disability Toolkit app icon draft</title>
  <desc id="desc">Rounded square icon with green, yellow, and red stripes plus a traced white accessibility silhouette.</desc>

  <defs>
    <clipPath id="icon-shape">
      <rect x="128" y="96" width="768" height="768" rx="182" ry="182" />
    </clipPath>
  </defs>

  <g clip-path="url(#icon-shape)">
    <rect x="128" y="96" width="768" height="768" fill="#22842e" />
    <rect x="128" y="314.6" width="768" height="305.8" fill="#facc00" />
    <rect x="128" y="620.5" width="768" height="243.5" fill="#c91616" />
  </g>

  <g fill="#fbfaf9">
    <circle cx="511.3" cy="243.4" r="64.3" />
    <path d="M 539.3 344.2 L 553.5 345.9 L 568.2 347.3 L 583.4 348.2 L 599.0 348.7 L 615.0 348.8 L 631.5 348.4 L 648.5 347.7 L 665.9 346.6 L 683.8 345.0 L 699.8 344.0 L 713.8 343.5 L 725.9 343.6 L 736.1 344.2 L 744.3 345.3 L 750.7 347.0 L 755.1 349.2 L 757.5 352.0 L 759.7 354.8 L 761.4 357.5 L 762.8 360.3 L 763.8 363.1 L 764.4 365.8 L 764.6 368.6 L 764.5 371.4 L 764.0 374.1 L 763.3 376.7 L 762.5 379.2 L 761.5 381.4 L 760.4 383.5 L 759.0 385.4 L 757.5 387.1 L 755.9 388.7 L 754.1 390.1 L 750.6 391.5 L 745.6 393.1 L 738.9 394.7 L 730.6 396.5 L 720.8 398.3 L 709.3 400.2 L 696.1 402.2 L 681.4 404.2 L 667.8 406.4 L 655.4 408.7 L 644.2 411.1 L 634.1 413.6 L 625.1 416.2 L 617.4 419.0 L 610.7 421.8 L 605.3 424.7 L 600.4 428.0 L 596.1 431.5 L 592.5 435.2 L 589.4 439.3 L 587.0 443.7 L 585.1 448.3 L 583.8 453.2 L 583.2 458.4 L 582.7 464.3 L 582.5 471.1 L 582.4 478.6 L 582.6 486.9 L 583.0 496.0 L 583.5 505.9 L 584.3 516.5 L 585.3 527.9 L 586.6 540.6 L 588.2 554.6 L 590.2 569.9 L 592.4 586.6 L 594.9 604.5 L 597.8 623.7 L 601.0 644.2 L 604.4 665.9 L 607.4 685.3 L 609.9 702.3 L 611.9 716.9 L 613.4 729.1 L 614.4 738.9 L 614.9 746.3 L 614.9 751.3 L 614.4 753.9 L 613.7 756.4 L 612.8 758.7 L 611.6 760.9 L 610.3 763.0 L 608.8 764.9 L 607.0 766.7 L 605.1 768.4 L 603.0 770.0 L 600.6 771.1 L 598.1 771.7 L 595.4 771.9 L 592.5 771.7 L 589.4 771.0 L 586.1 769.8 L 582.7 768.2 L 579.0 766.1 L 575.2 761.3 L 571.1 753.9 L 566.9 743.8 L 562.4 731.0 L 557.7 715.5 L 552.8 697.3 L 547.8 676.5 L 542.5 653.0 L 537.6 632.2 L 533.1 614.2 L 529.0 599.0 L 525.4 586.6 L 522.2 576.9 L 519.4 569.9 L 517.0 565.8 L 515.0 564.4 L 513.1 563.4 L 511.3 562.7 L 509.5 562.3 L 507.9 562.3 L 506.3 562.7 L 504.8 563.4 L 503.4 564.4 L 502.1 565.8 L 500.3 569.9 L 498.1 576.9 L 495.4 586.6 L 492.2 599.0 L 488.6 614.2 L 484.6 632.2 L 480.1 653.0 L 475.1 676.5 L 470.4 697.3 L 466.1 715.5 L 462.1 731.0 L 458.3 743.8 L 454.9 753.9 L 451.8 761.3 L 449.0 766.1 L 446.5 768.2 L 444.0 769.8 L 441.3 771.0 L 438.6 771.8 L 435.8 772.2 L 432.9 772.1 L 429.9 771.5 L 426.8 770.6 L 423.7 769.2 L 420.9 767.6 L 418.4 765.7 L 416.2 763.6 L 414.4 761.3 L 412.9 758.7 L 411.8 755.9 L 411.0 752.9 L 410.5 749.6 L 410.5 743.9 L 411.0 735.7 L 411.9 725.2 L 413.4 712.2 L 415.4 696.8 L 417.9 679.0 L 420.9 658.8 L 424.4 636.1 L 427.5 614.6 L 430.2 594.1 L 432.6 574.7 L 434.5 556.5 L 436.2 539.4 L 437.4 523.3 L 438.3 508.4 L 438.8 494.5 L 439.0 482.1 L 438.9 471.0 L 438.5 461.3 L 437.8 453.0 L 436.9 446.1 L 435.7 440.6 L 434.1 436.4 L 432.3 433.6 L 430.3 431.0 L 428.2 428.6 L 425.8 426.2 L 423.4 424.1 L 420.7 422.1 L 417.9 420.2 L 414.9 418.5 L 411.8 417.0 L 407.2 415.4 L 401.3 413.8 L 394.0 412.2 L 385.3 410.5 L 375.3 408.8 L 363.8 407.2 L 351.0 405.4 L 336.7 403.7 L 323.8 401.9 L 312.3 400.0 L 302.2 398.0 L 293.4 395.9 L 286.0 393.8 L 280.0 391.5 L 275.3 389.2 L 272.0 386.8 L 269.1 384.3 L 266.7 381.7 L 264.7 379.0 L 263.1 376.2 L 262.0 373.4 L 261.3 370.4 L 261.0 367.4 L 261.2 364.3 L 261.6 361.3 L 262.3 358.6 L 263.3 356.0 L 264.5 353.6 L 266.0 351.3 L 267.8 349.2 L 269.8 347.3 L 272.2 345.6 L 276.2 344.2 L 282.0 343.2 L 289.5 342.6 L 298.8 342.4 L 309.8 342.5 L 322.6 342.9 L 337.0 343.8 L 353.3 345.0 L 368.7 345.9 L 383.4 346.4 L 397.2 346.7 L 410.3 346.6 L 422.6 346.2 L 434.1 345.4 L 444.8 344.4 L 454.7 343.0 L 465.2 342.0 L 476.2 341.4 L 487.8 341.2 L 499.8 341.4 L 512.5 341.9 L 525.6 342.9 Z" />
  </g>
</svg>
